<svg xmlns="http://www.w3.org/2000/svg" width="210" height="30" fill="none"><mask id="a" width="210" height="30" x="0" y="0" maskUnits="userSpaceOnUse" style="mask-type:luminance"><path fill="#fff" fill-rule="evenodd" d="M0 0h210v29.27H0V0z" clip-rule="evenodd"/></mask><g fill-rule="evenodd" clip-rule="evenodd" mask="url(#a)"><path fill="#99E9A5" d="m16.817 1.302.01.03a7.474 7.474 0 0 1-2.991 8.401L2.845 17.085a.113.113 0 0 1-.171-.06 7.474 7.474 0 0 1 2.981-8.432L16.646 1.24a.113.113 0 0 1 .171.06zm-2.34 10.901.01.03a7.474 7.474 0 0 1-2.99 8.402L.504 27.987a.113.113 0 0 1-.171-.06 7.474 7.474 0 0 1 2.981-8.433l10.992-7.352a.113.113 0 0 1 .17.061z"/><path fill="#FFFFFE" d="M26.859 22.877c1.022 1.038 2.322 1.554 3.894 1.554 1.576 0 2.88-.517 3.915-1.554 1.037-1.035 1.556-2.368 1.556-3.993 0-1.626-.519-2.956-1.556-3.994-1.035-1.035-2.34-1.553-3.915-1.553-1.572 0-2.872.518-3.894 1.553-1.023 1.038-1.535 2.368-1.535 3.994 0 1.625.512 2.958 1.535 3.993zm9.365-13.829h5.073v19.671h-5.073v-2.322c-1.523 1.917-3.66 2.872-6.414 2.872-2.623 0-4.873-1.001-6.748-3.008-1.876-2.008-2.812-4.467-2.812-7.377s.936-5.37 2.812-7.377c1.875-2.008 4.125-3.009 6.748-3.009 2.754 0 4.89.956 6.414 2.872V9.048zm14.204 5.588c0 .523.348.95 1.044 1.277.694.33 1.54.617 2.536.865.997.25 1.993.564 2.99.946.996.38 1.844 1.016 2.538 1.907.696.893 1.042 2.007 1.042 3.345 0 2.019-.754 3.573-2.262 4.66-1.508 1.09-3.388 1.633-5.645 1.633-4.04 0-6.794-1.558-8.26-4.68l4.405-2.48c.577 1.707 1.861 2.557 3.855 2.557 1.81 0 2.716-.562 2.716-1.69 0-.524-.349-.951-1.043-1.28-.696-.327-1.541-.622-2.538-.884a26.368 26.368 0 0 1-2.99-.985 6.122 6.122 0 0 1-2.538-1.868c-.696-.852-1.042-1.92-1.042-3.206 0-1.942.713-3.47 2.145-4.584 1.428-1.114 3.205-1.671 5.33-1.671 1.6 0 3.055.36 4.366 1.08 1.311.723 2.349 1.751 3.11 3.089l-4.33 2.36c-.629-1.337-1.678-2.005-3.146-2.005-.657 0-1.2.144-1.633.432-.434.288-.65.682-.65 1.182zm17.07 0c0 .523.349.95 1.045 1.277.694.33 1.54.617 2.535.865.997.25 1.994.564 2.99.946.997.38 1.844 1.016 2.538 1.907.697.893 1.042 2.007 1.042 3.345 0 2.019-.753 3.573-2.262 4.66-1.507 1.09-3.388 1.633-5.645 1.633-4.039 0-6.793-1.558-8.26-4.68l4.406-2.48c.576 1.707 1.86 2.557 3.854 2.557 1.81 0 2.716-.562 2.716-1.69 0-.524-.348-.951-1.042-1.28-.697-.327-1.542-.622-2.539-.884a26.344 26.344 0 0 1-2.989-.985 6.123 6.123 0 0 1-2.538-1.868c-.697-.852-1.042-1.92-1.042-3.206 0-1.942.713-3.47 2.144-4.584 1.429-1.114 3.206-1.671 5.33-1.671 1.6 0 3.055.36 4.366 1.08 1.311.723 2.349 1.751 3.11 3.089l-4.33 2.36c-.629-1.337-1.678-2.005-3.145-2.005-.658 0-1.2.144-1.633.432-.435.288-.65.682-.65 1.182zm17.355 2.399h10.033c-.29-1.338-.886-2.334-1.792-2.99-.905-.655-1.933-.985-3.088-.985-1.364 0-2.492.349-3.383 1.043-.891.696-1.482 1.673-1.77 2.932zm.08 3.933c.68 2.466 2.528 3.698 5.547 3.698 1.94 0 3.407-.653 4.406-1.967l4.092 2.36c-1.943 2.808-4.8 4.21-8.578 4.21-3.253 0-5.861-.982-7.83-2.948-1.967-1.97-2.949-4.448-2.949-7.437 0-2.963.97-5.437 2.91-7.415 1.94-1.982 4.433-2.971 7.476-2.971 2.884 0 5.266.997 7.141 2.99 1.875 1.993 2.812 4.459 2.812 7.396 0 .655-.065 1.352-.197 2.084h-14.83zm29.229-7.04h-4.445v8.18c0 .685.17 1.182.511 1.497.341.314.841.492 1.496.53.656.041 1.468.034 2.438-.019v4.604c-3.487.393-5.946.064-7.377-.985-1.429-1.047-2.142-2.922-2.142-5.626v-8.181h-3.424v-4.88h3.424V5.074l5.074-1.534v5.508h4.445v4.88zm18.177 15.342c-2.964 0-5.437-.997-7.415-2.99-1.982-1.993-2.971-4.46-2.971-7.396 0-2.937.989-5.403 2.971-7.396 1.978-1.993 4.451-2.99 7.415-2.99 1.914 0 3.659.459 5.232 1.376 1.573.92 2.766 2.152 3.581 3.698l-4.368 2.557a4.458 4.458 0 0 0-1.79-1.928c-.799-.47-1.697-.708-2.694-.708-1.522 0-2.78.506-3.777 1.515-.996 1.01-1.496 2.303-1.496 3.876 0 1.549.5 2.826 1.496 3.834.997 1.012 2.255 1.516 3.777 1.516 1.023 0 1.933-.228 2.733-.687a4.33 4.33 0 0 0 1.791-1.909l4.407 2.516c-.867 1.55-2.087 2.788-3.66 3.72-1.573.93-3.318 1.395-5.232 1.395zm11.567-.55V1.52L148.98 0v28.72h-5.074zm15.3-5.843c1.023 1.037 2.322 1.554 3.895 1.554 1.575 0 2.879-.517 3.914-1.554 1.038-1.035 1.556-2.368 1.556-3.993 0-1.626-.518-2.956-1.556-3.994-1.035-1.035-2.339-1.553-3.914-1.553-1.573 0-2.872.518-3.895 1.553-1.023 1.038-1.534 2.368-1.534 3.994 0 1.625.511 2.958 1.534 3.993zm9.365-13.829h5.074v19.671h-5.074v-2.322c-1.522 1.917-3.659 2.872-6.414 2.872-2.622 0-4.872-1.001-6.747-3.008-1.876-2.008-2.812-4.467-2.812-7.377s.936-5.37 2.812-7.377c1.875-2.008 4.125-3.009 6.747-3.009 2.755 0 4.892.956 6.414 2.872V9.048zm14.204 5.588c0 .523.349.95 1.045 1.277.694.33 1.539.617 2.536.865.996.25 1.993.564 2.989.946.997.38 1.845 1.016 2.539 1.907.696.893 1.042 2.007 1.042 3.345 0 2.019-.754 3.573-2.262 4.66-1.508 1.09-3.388 1.633-5.646 1.633-4.039 0-6.793-1.558-8.26-4.68l4.406-2.48c.576 1.707 1.861 2.557 3.854 2.557 1.811 0 2.716-.562 2.716-1.69 0-.524-.348-.951-1.042-1.28-.696-.327-1.542-.622-2.538-.884a26.346 26.346 0 0 1-2.99-.985 6.12 6.12 0 0 1-2.538-1.868c-.696-.852-1.042-1.92-1.042-3.206 0-1.942.713-3.47 2.144-4.584 1.429-1.114 3.206-1.671 5.331-1.671 1.599 0 3.055.36 4.366 1.08 1.311.723 2.348 1.751 3.109 3.089l-4.329 2.36c-.629-1.337-1.679-2.005-3.146-2.005-.658 0-1.201.144-1.633.432-.434.288-.651.682-.651 1.182zm17.075 0c0 .523.348.95 1.044 1.277.694.33 1.54.617 2.536.865.997.25 1.993.564 2.99.946.996.38 1.844 1.016 2.538 1.907.696.893 1.042 2.007 1.042 3.345 0 2.019-.754 3.573-2.262 4.66-1.508 1.09-3.388 1.633-5.645 1.633-4.039 0-6.794-1.558-8.261-4.68l4.407-2.48c.576 1.707 1.861 2.557 3.854 2.557 1.81 0 2.715-.562 2.715-1.69 0-.524-.348-.951-1.042-1.28-.696-.327-1.541-.622-2.538-.884a26.266 26.266 0 0 1-2.989-.985 6.117 6.117 0 0 1-2.539-1.868c-.696-.852-1.042-1.92-1.042-3.206 0-1.942.713-3.47 2.144-4.584 1.429-1.114 3.206-1.671 5.331-1.671 1.6 0 3.055.36 4.366 1.08 1.311.723 2.348 1.751 3.11 3.089l-4.33 2.36c-.629-1.337-1.678-2.005-3.146-2.005-.658 0-1.2.144-1.632.432-.435.288-.651.682-.651 1.182z"/></g></svg>